<svg width="19" height="18" viewBox="0 0 19 18" fill="none" xmlns="http://www.w3.org/2000/svg">
<g id="Group 2442">
<path id="Vector" d="M16.6236 11.7998C16.6236 11.7998 14.6236 13.9698 14.6236 15.2998C14.6236 15.8302 14.8343 16.3389 15.2094 16.714C15.5845 17.0891 16.0932 17.2998 16.6236 17.2998C17.154 17.2998 17.6627 17.0891 18.0378 16.714C18.4129 16.3389 18.6236 15.8302 18.6236 15.2998C18.6236 13.9698 16.6236 11.7998 16.6236 11.7998ZM2.83359 10.2998L7.62359 5.5098L12.4136 10.2998M14.1836 9.2398L5.24359 0.299805L3.83359 1.7098L6.21359 4.0898L1.06359 9.2398C0.473594 9.7998 0.473594 10.7698 1.06359 11.3598L6.56359 16.8598C6.85359 17.1498 7.24359 17.2998 7.62359 17.2998C8.00359 17.2998 8.39359 17.1498 8.68359 16.8598L14.1836 11.3598C14.7736 10.7698 14.7736 9.7998 14.1836 9.2398Z" fill="#51646E"/>
<path id="Vector 167" d="M7.69231 15.2968L2.8623 10.2529H12.4297L7.69231 15.2968Z" fill="#FFA000"/>
</g>
</svg>
