<svg width="20" height="20" viewBox="0 0 20 20" fill="none" xmlns="http://www.w3.org/2000/svg">
<g id="Group 2464">
<path id="Vector 169" d="M7.60791 7.50805L2.4541 8.30096L7.01322 11.9681L5.82388 17.5184L9.98658 14.3468L15.1404 17.5184L13.7528 11.9681L17.6182 8.30096L12.3653 7.50805L9.98658 2.35425L7.60791 7.50805Z" fill="#FFA000"/>
<path id="Vector" d="M10.0659 13.7156L6.42764 15.9121L7.38559 11.7706L4.17307 8.98386L8.41128 8.62584L10.0659 4.71663L11.7206 8.62584L15.9588 8.98386L12.7462 11.7706L13.7042 15.9121M19.7422 7.76465L12.785 7.1744L10.0659 0.759033L7.34689 7.1744L0.389648 7.76465L5.66322 12.3415L4.08598 19.1439L10.0659 15.5347L16.0459 19.1439L14.4589 12.3415L19.7422 7.76465Z" fill="#455A64"/>
</g>
</svg>
