<svg width="14" height="15" viewBox="0 0 14 15" fill="none" xmlns="http://www.w3.org/2000/svg">
<path id="search" d="M12.2784 14.1461L7.86424 9.42112C7.51391 9.72112 7.11103 9.95862 6.6556 10.1336C6.20017 10.3086 5.71555 10.3961 5.20174 10.3961C3.92888 10.3961 2.85173 9.92437 1.9703 8.98087C1.08841 8.03687 0.647461 6.88362 0.647461 5.52112C0.647461 4.15862 1.08841 3.00537 1.9703 2.06137C2.85173 1.11787 3.92888 0.646118 5.20174 0.646118C6.4746 0.646118 7.55198 1.11787 8.43387 2.06137C9.3153 3.00537 9.75601 4.15862 9.75601 5.52112C9.75601 6.07112 9.67427 6.58987 9.51078 7.07737C9.3473 7.56487 9.12542 7.99612 8.84516 8.37112L13.2593 13.0961L12.2784 14.1461ZM5.20174 8.89612C6.07756 8.89612 6.82213 8.56812 7.43543 7.91212C8.04828 7.25562 8.3547 6.45862 8.3547 5.52112C8.3547 4.58362 8.04828 3.78662 7.43543 3.13012C6.82213 2.47412 6.07756 2.14612 5.20174 2.14612C4.32591 2.14612 3.58135 2.47412 2.96804 3.13012C2.3552 3.78662 2.04878 4.58362 2.04878 5.52112C2.04878 6.45862 2.3552 7.25562 2.96804 7.91212C3.58135 8.56812 4.32591 8.89612 5.20174 8.89612Z" fill="#9E9E9E"/>
</svg>
