<svg width="19" height="18" viewBox="0 0 19 18" fill="none" xmlns="http://www.w3.org/2000/svg">
<path d="M16.1011 12.0245C16.1011 12.0245 14.1011 14.1945 14.1011 15.5245C14.1011 16.055 14.3118 16.5637 14.6869 16.9387C15.062 17.3138 15.5707 17.5245 16.1011 17.5245C16.6316 17.5245 17.1403 17.3138 17.5153 16.9387C17.8904 16.5637 18.1011 16.055 18.1011 15.5245C18.1011 14.1945 16.1011 12.0245 16.1011 12.0245ZM2.31113 10.5245L7.10113 5.73454L11.8911 10.5245M13.6611 9.46454L4.72113 0.524536L3.31113 1.93454L5.69113 4.31454L0.541133 9.46454C-0.0488672 10.0245 -0.0488672 10.9945 0.541133 11.5845L6.04113 17.0845C6.33113 17.3745 6.72113 17.5245 7.10113 17.5245C7.48113 17.5245 7.87113 17.3745 8.16113 17.0845L13.6611 11.5845C14.2511 10.9945 14.2511 10.0245 13.6611 9.46454Z" fill="#51646E"/>
<path d="M7.16985 15.5216L2.33984 10.4777H11.9072L7.16985 15.5216Z" fill="#FFA000"/>
</svg>
