<svg width="19" height="18" viewBox="0 0 19 18" fill="none" xmlns="http://www.w3.org/2000/svg">
<g id="Group 2442">
<path id="Vector" d="M16.4957 11.5468C16.4957 11.5468 14.4957 13.7168 14.4957 15.0468C14.4957 15.5772 14.7064 16.086 15.0815 16.461C15.4565 16.8361 15.9652 17.0468 16.4957 17.0468C17.0261 17.0468 17.5348 16.8361 17.9099 16.461C18.285 16.086 18.4957 15.5772 18.4957 15.0468C18.4957 13.7168 16.4957 11.5468 16.4957 11.5468ZM2.70566 10.0468L7.49566 5.25681L12.2857 10.0468M14.0557 8.98681L5.11566 0.046814L3.70566 1.45681L6.08566 3.83681L0.935664 8.98681C0.345664 9.54681 0.345664 10.5168 0.935664 11.1068L6.43566 16.6068C6.72566 16.8968 7.11566 17.0468 7.49566 17.0468C7.87566 17.0468 8.26566 16.8968 8.55566 16.6068L14.0557 11.1068C14.6457 10.5168 14.6457 9.54681 14.0557 8.98681Z" fill="#51646E"/>
<path id="Vector 167" d="M7.56462 15.0439L2.73462 10H12.302L7.56462 15.0439Z" fill="#FFA000"/>
</g>
</svg>
