<svg width="14" height="15" viewBox="0 0 14 15" fill="none" xmlns="http://www.w3.org/2000/svg">
<path d="M12.2039 14.1461L7.78977 9.42112C7.43945 9.72112 7.03657 9.95862 6.58114 10.1336C6.12571 10.3086 5.64109 10.3961 5.12727 10.3961C3.85441 10.3961 2.77727 9.92437 1.89584 8.98087C1.01395 8.03687 0.572998 6.88362 0.572998 5.52112C0.572998 4.15862 1.01395 3.00537 1.89584 2.06137C2.77727 1.11787 3.85441 0.646118 5.12727 0.646118C6.40014 0.646118 7.47751 1.11787 8.35941 2.06137C9.24084 3.00537 9.68155 4.15862 9.68155 5.52112C9.68155 6.07112 9.59981 6.58987 9.43632 7.07737C9.27283 7.56487 9.05096 7.99612 8.7707 8.37112L13.1848 13.0961L12.2039 14.1461ZM5.12727 8.89612C6.0031 8.89612 6.74766 8.56812 7.36097 7.91212C7.97381 7.25562 8.28023 6.45862 8.28023 5.52112C8.28023 4.58362 7.97381 3.78662 7.36097 3.13012C6.74766 2.47412 6.0031 2.14612 5.12727 2.14612C4.25145 2.14612 3.50689 2.47412 2.89358 3.13012C2.28073 3.78662 1.97431 4.58362 1.97431 5.52112C1.97431 6.45862 2.28073 7.25562 2.89358 7.91212C3.50689 8.56812 4.25145 8.89612 5.12727 8.89612Z" fill="#9E9E9E"/>
</svg>
